<?xml version="1.0" encoding="UTF-8" standalone="no"?>
<!DOCTYPE svg PUBLIC "-//W3C//DTD SVG 1.1//EN"
 "http://www.w3.org/Graphics/SVG/1.1/DTD/svg11.dtd">
<!-- Generated by graphviz version 2.40.1 (20161225.0304)
 -->
<!-- Title: workflow Pages: 1 -->
<svg width="711pt" height="250pt"
 viewBox="0.00 0.00 711.01 249.50" xmlns="http://www.w3.org/2000/svg" xmlns:xlink="http://www.w3.org/1999/xlink">
<g id="graph0" class="graph" transform="scale(1 1) rotate(0) translate(4 245.5039)">
<title>workflow</title>
<polygon fill="#ffffff" stroke="transparent" points="-4,4 -4,-245.5039 707.0078,-245.5039 707.0078,4 -4,4"/>
<!-- place_0e7766b460fd2a39a2fd81d4a3a636b033b52be4 -->
<g id="node1" class="node">
<title>place_0e7766b460fd2a39a2fd81d4a3a636b033b52be4</title>
<ellipse fill="#add8e6" stroke="#333333" cx="36" cy="-111.5039" rx="36" ry="36"/>
<text text-anchor="middle" x="36" y="-109.4785" font-family="Arial" font-size="9.00" fill="#000000">draft</text>
</g>
<!-- transition_bc23cc6a5c3c0eb3268ef53423a70efa7c89f3f8 -->
<g id="node5" class="node">
<title>transition_bc23cc6a5c3c0eb3268ef53423a70efa7c89f3f8</title>
<polygon fill="none" stroke="#333333" points="180,-147.5039 108,-147.5039 108,-75.5039 180,-75.5039 180,-147.5039"/>
<text text-anchor="middle" x="144" y="-109.4785" font-family="Arial" font-size="9.00" fill="#000000">to_review</text>
</g>
<!-- place_0e7766b460fd2a39a2fd81d4a3a636b033b52be4&#45;&gt;transition_bc23cc6a5c3c0eb3268ef53423a70efa7c89f3f8 -->
<g id="edge1" class="edge">
<title>place_0e7766b460fd2a39a2fd81d4a3a636b033b52be4&#45;&gt;transition_bc23cc6a5c3c0eb3268ef53423a70efa7c89f3f8</title>
<path fill="none" stroke="#333333" d="M72.2629,-111.5039C81.969,-111.5039 92.5352,-111.5039 102.5004,-111.5039"/>
<polygon fill="#333333" stroke="#333333" points="102.649,-113.254 107.649,-111.5039 102.649,-109.754 102.649,-113.254"/>
</g>
<!-- place_61e62b213a1a56f7695845df4fc372a10cb0a73e -->
<g id="node2" class="node">
<title>place_61e62b213a1a56f7695845df4fc372a10cb0a73e</title>
<ellipse fill="none" stroke="#333333" cx="252" cy="-111.5039" rx="36" ry="36"/>
<text text-anchor="middle" x="252" y="-109.4785" font-family="Arial" font-size="9.00" fill="#000000">review</text>
</g>
<!-- transition_5e2fb0c2c59448e1dec5df0f70ec85fcad1ca7b6 -->
<g id="node6" class="node">
<title>transition_5e2fb0c2c59448e1dec5df0f70ec85fcad1ca7b6</title>
<polygon fill="none" stroke="#333333" points="396,-239.5039 324,-239.5039 324,-167.5039 396,-167.5039 396,-239.5039"/>
<text text-anchor="middle" x="360" y="-201.4785" font-family="Arial" font-size="9.00" fill="#000000">publish</text>
</g>
<!-- place_61e62b213a1a56f7695845df4fc372a10cb0a73e&#45;&gt;transition_5e2fb0c2c59448e1dec5df0f70ec85fcad1ca7b6 -->
<g id="edge3" class="edge">
<title>place_61e62b213a1a56f7695845df4fc372a10cb0a73e&#45;&gt;transition_5e2fb0c2c59448e1dec5df0f70ec85fcad1ca7b6</title>
<path fill="none" stroke="#333333" d="M279.5324,-134.9574C291.7659,-145.3786 306.4072,-157.8508 319.8269,-169.2824"/>
<polygon fill="#333333" stroke="#333333" points="319.0074,-170.8831 323.9484,-172.7933 321.277,-168.2188 319.0074,-170.8831"/>
</g>
<!-- transition_90afb8c10d80d7b84837590eb43cb0b81ca22390 -->
<g id="node7" class="node">
<title>transition_90afb8c10d80d7b84837590eb43cb0b81ca22390</title>
<polygon fill="none" stroke="#333333" points="396,-147.5039 324,-147.5039 324,-75.5039 396,-75.5039 396,-147.5039"/>
<text text-anchor="middle" x="360" y="-109.4785" font-family="Arial" font-size="9.00" fill="#000000">reject</text>
</g>
<!-- place_61e62b213a1a56f7695845df4fc372a10cb0a73e&#45;&gt;transition_90afb8c10d80d7b84837590eb43cb0b81ca22390 -->
<g id="edge5" class="edge">
<title>place_61e62b213a1a56f7695845df4fc372a10cb0a73e&#45;&gt;transition_90afb8c10d80d7b84837590eb43cb0b81ca22390</title>
<path fill="none" stroke="#333333" d="M288.2629,-111.5039C297.969,-111.5039 308.5352,-111.5039 318.5004,-111.5039"/>
<polygon fill="#333333" stroke="#333333" points="318.649,-113.254 323.649,-111.5039 318.649,-109.754 318.649,-113.254"/>
</g>
<!-- place_1f087a5954f6249bb7245576c304a0520d4178c5 -->
<g id="node3" class="node">
<title>place_1f087a5954f6249bb7245576c304a0520d4178c5</title>
<ellipse fill="none" stroke="#ff0000" cx="472" cy="-111.5039" rx="36" ry="36"/>
<ellipse fill="none" stroke="#ff0000" cx="472" cy="-111.5039" rx="40" ry="40"/>
<text text-anchor="middle" x="472" y="-109.4785" font-family="Arial" font-size="9.00" fill="#000000">rejected</text>
</g>
<!-- transition_a84cb335d064aa133cd789c5752ec3698ca05cad -->
<g id="node8" class="node">
<title>transition_a84cb335d064aa133cd789c5752ec3698ca05cad</title>
<polygon fill="none" stroke="#333333" points="703.0117,-155.0117 547.9961,-155.0117 547.9961,.0039 703.0117,.0039 703.0117,-155.0117"/>
<text text-anchor="middle" x="625.5039" y="-76.7511" font-family="Arial" font-size="9.00" fill="#000000">我修改了之后就可以重新 review 了</text>
</g>
<!-- place_1f087a5954f6249bb7245576c304a0520d4178c5&#45;&gt;transition_a84cb335d064aa133cd789c5752ec3698ca05cad -->
<g id="edge7" class="edge">
<title>place_1f087a5954f6249bb7245576c304a0520d4178c5&#45;&gt;transition_a84cb335d064aa133cd789c5752ec3698ca05cad</title>
<path fill="none" stroke="#333333" d="M511.1327,-102.8363C520.9155,-100.6695 531.7815,-98.2627 542.8121,-95.8195"/>
<polygon fill="#333333" stroke="#333333" points="543.3853,-97.4851 547.8885,-94.6951 542.6284,-94.0679 543.3853,-97.4851"/>
</g>
<!-- place_c2807535f28e44fe6c7375dcf90518115529a8fa -->
<g id="node4" class="node">
<title>place_c2807535f28e44fe6c7375dcf90518115529a8fa</title>
<ellipse fill="none" stroke="#333333" cx="472" cy="-205.5039" rx="36" ry="36"/>
<text text-anchor="middle" x="472" y="-203.4785" font-family="Arial" font-size="9.00" fill="#000000">published</text>
</g>
<!-- transition_bc23cc6a5c3c0eb3268ef53423a70efa7c89f3f8&#45;&gt;place_61e62b213a1a56f7695845df4fc372a10cb0a73e -->
<g id="edge2" class="edge">
<title>transition_bc23cc6a5c3c0eb3268ef53423a70efa7c89f3f8&#45;&gt;place_61e62b213a1a56f7695845df4fc372a10cb0a73e</title>
<path fill="none" stroke="#333333" d="M180.2629,-111.5039C189.969,-111.5039 200.5352,-111.5039 210.5004,-111.5039"/>
<polygon fill="#333333" stroke="#333333" points="210.649,-113.254 215.649,-111.5039 210.649,-109.754 210.649,-113.254"/>
</g>
<!-- transition_5e2fb0c2c59448e1dec5df0f70ec85fcad1ca7b6&#45;&gt;place_c2807535f28e44fe6c7375dcf90518115529a8fa -->
<g id="edge4" class="edge">
<title>transition_5e2fb0c2c59448e1dec5df0f70ec85fcad1ca7b6&#45;&gt;place_c2807535f28e44fe6c7375dcf90518115529a8fa</title>
<path fill="none" stroke="#333333" d="M396.054,-204.1477C407.034,-204.3438 419.1908,-204.5609 430.5002,-204.7628"/>
<polygon fill="#333333" stroke="#333333" points="430.5991,-206.5148 435.6296,-204.8544 430.6616,-203.0153 430.5991,-206.5148"/>
</g>
<!-- transition_90afb8c10d80d7b84837590eb43cb0b81ca22390&#45;&gt;place_1f087a5954f6249bb7245576c304a0520d4178c5 -->
<g id="edge6" class="edge">
<title>transition_90afb8c10d80d7b84837590eb43cb0b81ca22390&#45;&gt;place_1f087a5954f6249bb7245576c304a0520d4178c5</title>
<path fill="none" stroke="#333333" d="M396.054,-111.5039C405.7471,-111.5039 416.3572,-111.5039 426.4919,-111.5039"/>
<polygon fill="#333333" stroke="#333333" points="426.741,-113.254 431.741,-111.5039 426.7409,-109.754 426.741,-113.254"/>
</g>
<!-- transition_a84cb335d064aa133cd789c5752ec3698ca05cad&#45;&gt;place_61e62b213a1a56f7695845df4fc372a10cb0a73e -->
<g id="edge8" class="edge">
<title>transition_a84cb335d064aa133cd789c5752ec3698ca05cad&#45;&gt;place_61e62b213a1a56f7695845df4fc372a10cb0a73e</title>
<path fill="none" stroke="#333333" d="M547.7879,-60.8806C485.7951,-50.8678 397.483,-43.9492 324,-66.5039 310.1945,-70.7413 296.4109,-78.3259 284.6543,-86.0751"/>
<polygon fill="#333333" stroke="#333333" points="283.5854,-84.6851 280.4184,-88.9316 285.5423,-87.587 283.5854,-84.6851"/>
</g>
</g>
</svg>
