<?xml version="1.0" encoding="UTF-8" standalone="no"?>
<!DOCTYPE svg PUBLIC "-//W3C//DTD SVG 1.1//EN"
 "http://www.w3.org/Graphics/SVG/1.1/DTD/svg11.dtd">
<!-- Generated by graphviz version 2.40.1 (20161225.0304)
 -->
<!-- Title: workflow Pages: 1 -->
<svg width="711pt" height="244pt"
 viewBox="0.00 0.00 711.01 243.50" xmlns="http://www.w3.org/2000/svg" xmlns:xlink="http://www.w3.org/1999/xlink">
<g id="graph0" class="graph" transform="scale(1 1) rotate(0) translate(4 239.5039)">
<title>workflow</title>
<polygon fill="#ffffff" stroke="transparent" points="-4,4 -4,-239.5039 707.0078,-239.5039 707.0078,4 -4,4"/>
<!-- place_0e7766b460fd2a39a2fd81d4a3a636b033b52be4 -->
<g id="node1" class="node">
<title>place_0e7766b460fd2a39a2fd81d4a3a636b033b52be4</title>
<ellipse fill="#add8e6" stroke="#333333" cx="36" cy="-109.5039" rx="36" ry="36"/>
<text text-anchor="middle" x="36" y="-107.4785" font-family="Arial" font-size="9.00" fill="#000000">draft</text>
</g>
<!-- transition_bc23cc6a5c3c0eb3268ef53423a70efa7c89f3f8 -->
<g id="node5" class="node">
<title>transition_bc23cc6a5c3c0eb3268ef53423a70efa7c89f3f8</title>
<polygon fill="none" stroke="#333333" points="180,-145.5039 108,-145.5039 108,-73.5039 180,-73.5039 180,-145.5039"/>
<text text-anchor="middle" x="144" y="-107.4785" font-family="Arial" font-size="9.00" fill="#000000">to_review</text>
</g>
<!-- place_0e7766b460fd2a39a2fd81d4a3a636b033b52be4&#45;&gt;transition_bc23cc6a5c3c0eb3268ef53423a70efa7c89f3f8 -->
<g id="edge1" class="edge">
<title>place_0e7766b460fd2a39a2fd81d4a3a636b033b52be4&#45;&gt;transition_bc23cc6a5c3c0eb3268ef53423a70efa7c89f3f8</title>
<path fill="none" stroke="#333333" d="M72.2629,-109.5039C81.969,-109.5039 92.5352,-109.5039 102.5004,-109.5039"/>
<polygon fill="#333333" stroke="#333333" points="102.649,-111.254 107.649,-109.5039 102.649,-107.754 102.649,-111.254"/>
</g>
<!-- place_61e62b213a1a56f7695845df4fc372a10cb0a73e -->
<g id="node2" class="node">
<title>place_61e62b213a1a56f7695845df4fc372a10cb0a73e</title>
<ellipse fill="none" stroke="#ff0000" cx="256" cy="-109.5039" rx="36" ry="36"/>
<ellipse fill="none" stroke="#ff0000" cx="256" cy="-109.5039" rx="40" ry="40"/>
<text text-anchor="middle" x="256" y="-107.4785" font-family="Arial" font-size="9.00" fill="#000000">review</text>
</g>
<!-- transition_5e2fb0c2c59448e1dec5df0f70ec85fcad1ca7b6 -->
<g id="node6" class="node">
<title>transition_5e2fb0c2c59448e1dec5df0f70ec85fcad1ca7b6</title>
<polygon fill="none" stroke="#333333" points="404,-235.5039 332,-235.5039 332,-163.5039 404,-163.5039 404,-235.5039"/>
<text text-anchor="middle" x="368" y="-197.4785" font-family="Arial" font-size="9.00" fill="#000000">publish</text>
</g>
<!-- place_61e62b213a1a56f7695845df4fc372a10cb0a73e&#45;&gt;transition_5e2fb0c2c59448e1dec5df0f70ec85fcad1ca7b6 -->
<g id="edge3" class="edge">
<title>place_61e62b213a1a56f7695845df4fc372a10cb0a73e&#45;&gt;transition_5e2fb0c2c59448e1dec5df0f70ec85fcad1ca7b6</title>
<path fill="none" stroke="#333333" d="M287.1982,-134.5739C299.7511,-144.661 314.3876,-156.4225 327.7281,-167.1425"/>
<polygon fill="#333333" stroke="#333333" points="326.8291,-168.6652 331.8229,-170.433 329.0215,-165.9369 326.8291,-168.6652"/>
</g>
<!-- transition_90afb8c10d80d7b84837590eb43cb0b81ca22390 -->
<g id="node7" class="node">
<title>transition_90afb8c10d80d7b84837590eb43cb0b81ca22390</title>
<polygon fill="none" stroke="#333333" points="404,-145.5039 332,-145.5039 332,-73.5039 404,-73.5039 404,-145.5039"/>
<text text-anchor="middle" x="368" y="-107.4785" font-family="Arial" font-size="9.00" fill="#000000">reject</text>
</g>
<!-- place_61e62b213a1a56f7695845df4fc372a10cb0a73e&#45;&gt;transition_90afb8c10d80d7b84837590eb43cb0b81ca22390 -->
<g id="edge5" class="edge">
<title>place_61e62b213a1a56f7695845df4fc372a10cb0a73e&#45;&gt;transition_90afb8c10d80d7b84837590eb43cb0b81ca22390</title>
<path fill="none" stroke="#333333" d="M296.1182,-109.5039C306.0601,-109.5039 316.73,-109.5039 326.726,-109.5039"/>
<polygon fill="#333333" stroke="#333333" points="326.8845,-111.254 331.8845,-109.5039 326.8844,-107.754 326.8845,-111.254"/>
</g>
<!-- place_1f087a5954f6249bb7245576c304a0520d4178c5 -->
<g id="node3" class="node">
<title>place_1f087a5954f6249bb7245576c304a0520d4178c5</title>
<ellipse fill="none" stroke="#333333" cx="476" cy="-109.5039" rx="36" ry="36"/>
<text text-anchor="middle" x="476" y="-107.4785" font-family="Arial" font-size="9.00" fill="#000000">rejected</text>
</g>
<!-- transition_a84cb335d064aa133cd789c5752ec3698ca05cad -->
<g id="node8" class="node">
<title>transition_a84cb335d064aa133cd789c5752ec3698ca05cad</title>
<polygon fill="none" stroke="#333333" points="703.0117,-155.0117 547.9961,-155.0117 547.9961,.0039 703.0117,.0039 703.0117,-155.0117"/>
<text text-anchor="middle" x="625.5039" y="-76.7511" font-family="Arial" font-size="9.00" fill="#000000">我修改了之后就可以重新 review 了</text>
</g>
<!-- place_1f087a5954f6249bb7245576c304a0520d4178c5&#45;&gt;transition_a84cb335d064aa133cd789c5752ec3698ca05cad -->
<g id="edge7" class="edge">
<title>place_1f087a5954f6249bb7245576c304a0520d4178c5&#45;&gt;transition_a84cb335d064aa133cd789c5752ec3698ca05cad</title>
<path fill="none" stroke="#333333" d="M511.4303,-101.9204C521.015,-99.8688 531.8054,-97.5593 542.8282,-95.1999"/>
<polygon fill="#333333" stroke="#333333" points="543.3826,-96.871 547.9056,-94.1132 542.65,-93.4485 543.3826,-96.871"/>
</g>
<!-- place_c2807535f28e44fe6c7375dcf90518115529a8fa -->
<g id="node4" class="node">
<title>place_c2807535f28e44fe6c7375dcf90518115529a8fa</title>
<ellipse fill="none" stroke="#333333" cx="476" cy="-199.5039" rx="36" ry="36"/>
<text text-anchor="middle" x="476" y="-197.4785" font-family="Arial" font-size="9.00" fill="#000000">published</text>
</g>
<!-- transition_bc23cc6a5c3c0eb3268ef53423a70efa7c89f3f8&#45;&gt;place_61e62b213a1a56f7695845df4fc372a10cb0a73e -->
<g id="edge2" class="edge">
<title>transition_bc23cc6a5c3c0eb3268ef53423a70efa7c89f3f8&#45;&gt;place_61e62b213a1a56f7695845df4fc372a10cb0a73e</title>
<path fill="none" stroke="#333333" d="M180.054,-109.5039C189.7471,-109.5039 200.3572,-109.5039 210.4919,-109.5039"/>
<polygon fill="#333333" stroke="#333333" points="210.741,-111.254 215.741,-109.5039 210.7409,-107.754 210.741,-111.254"/>
</g>
<!-- transition_5e2fb0c2c59448e1dec5df0f70ec85fcad1ca7b6&#45;&gt;place_c2807535f28e44fe6c7375dcf90518115529a8fa -->
<g id="edge4" class="edge">
<title>transition_5e2fb0c2c59448e1dec5df0f70ec85fcad1ca7b6&#45;&gt;place_c2807535f28e44fe6c7375dcf90518115529a8fa</title>
<path fill="none" stroke="#333333" d="M404.2629,-199.5039C413.969,-199.5039 424.5352,-199.5039 434.5004,-199.5039"/>
<polygon fill="#333333" stroke="#333333" points="434.649,-201.254 439.649,-199.5039 434.649,-197.754 434.649,-201.254"/>
</g>
<!-- transition_90afb8c10d80d7b84837590eb43cb0b81ca22390&#45;&gt;place_1f087a5954f6249bb7245576c304a0520d4178c5 -->
<g id="edge6" class="edge">
<title>transition_90afb8c10d80d7b84837590eb43cb0b81ca22390&#45;&gt;place_1f087a5954f6249bb7245576c304a0520d4178c5</title>
<path fill="none" stroke="#333333" d="M404.2629,-109.5039C413.969,-109.5039 424.5352,-109.5039 434.5004,-109.5039"/>
<polygon fill="#333333" stroke="#333333" points="434.649,-111.254 439.649,-109.5039 434.649,-107.754 434.649,-111.254"/>
</g>
<!-- transition_a84cb335d064aa133cd789c5752ec3698ca05cad&#45;&gt;place_61e62b213a1a56f7695845df4fc372a10cb0a73e -->
<g id="edge8" class="edge">
<title>transition_a84cb335d064aa133cd789c5752ec3698ca05cad&#45;&gt;place_61e62b213a1a56f7695845df4fc372a10cb0a73e</title>
<path fill="none" stroke="#333333" d="M547.7369,-61.2244C487.7266,-51.7115 403.2086,-45.0034 332,-64.5039 318.3013,-68.2553 304.5662,-75.183 292.6144,-82.4976"/>
<polygon fill="#333333" stroke="#333333" points="291.6024,-81.0665 288.2951,-85.2047 293.4611,-84.0321 291.6024,-81.0665"/>
</g>
</g>
</svg>
