<?xml version="1.0" encoding="UTF-8" standalone="no"?>
<!DOCTYPE svg PUBLIC "-//W3C//DTD SVG 1.1//EN"
 "http://www.w3.org/Graphics/SVG/1.1/DTD/svg11.dtd">
<!-- Generated by graphviz version 2.40.1 (20161225.0304)
 -->
<!-- Title: workflow Pages: 1 -->
<svg width="711pt" height="252pt"
 viewBox="0.00 0.00 711.01 251.50" xmlns="http://www.w3.org/2000/svg" xmlns:xlink="http://www.w3.org/1999/xlink">
<g id="graph0" class="graph" transform="scale(1 1) rotate(0) translate(4 247.5039)">
<title>workflow</title>
<polygon fill="#ffffff" stroke="transparent" points="-4,4 -4,-247.5039 707.0078,-247.5039 707.0078,4 -4,4"/>
<!-- place_0e7766b460fd2a39a2fd81d4a3a636b033b52be4 -->
<g id="node1" class="node">
<title>place_0e7766b460fd2a39a2fd81d4a3a636b033b52be4</title>
<ellipse fill="#add8e6" stroke="#333333" cx="36" cy="-109.5039" rx="36" ry="36"/>
<text text-anchor="middle" x="36" y="-107.4785" font-family="Arial" font-size="9.00" fill="#000000">draft</text>
</g>
<!-- transition_bc23cc6a5c3c0eb3268ef53423a70efa7c89f3f8 -->
<g id="node5" class="node">
<title>transition_bc23cc6a5c3c0eb3268ef53423a70efa7c89f3f8</title>
<polygon fill="none" stroke="#333333" points="180,-145.5039 108,-145.5039 108,-73.5039 180,-73.5039 180,-145.5039"/>
<text text-anchor="middle" x="144" y="-107.4785" font-family="Arial" font-size="9.00" fill="#000000">to_review</text>
</g>
<!-- place_0e7766b460fd2a39a2fd81d4a3a636b033b52be4&#45;&gt;transition_bc23cc6a5c3c0eb3268ef53423a70efa7c89f3f8 -->
<g id="edge1" class="edge">
<title>place_0e7766b460fd2a39a2fd81d4a3a636b033b52be4&#45;&gt;transition_bc23cc6a5c3c0eb3268ef53423a70efa7c89f3f8</title>
<path fill="none" stroke="#333333" d="M72.2629,-109.5039C81.969,-109.5039 92.5352,-109.5039 102.5004,-109.5039"/>
<polygon fill="#333333" stroke="#333333" points="102.649,-111.254 107.649,-109.5039 102.649,-107.754 102.649,-111.254"/>
</g>
<!-- place_61e62b213a1a56f7695845df4fc372a10cb0a73e -->
<g id="node2" class="node">
<title>place_61e62b213a1a56f7695845df4fc372a10cb0a73e</title>
<ellipse fill="none" stroke="#333333" cx="252" cy="-109.5039" rx="36" ry="36"/>
<text text-anchor="middle" x="252" y="-107.4785" font-family="Arial" font-size="9.00" fill="#000000">review</text>
</g>
<!-- transition_5e2fb0c2c59448e1dec5df0f70ec85fcad1ca7b6 -->
<g id="node6" class="node">
<title>transition_5e2fb0c2c59448e1dec5df0f70ec85fcad1ca7b6</title>
<polygon fill="none" stroke="#333333" points="396,-237.5039 324,-237.5039 324,-165.5039 396,-165.5039 396,-237.5039"/>
<text text-anchor="middle" x="360" y="-199.4785" font-family="Arial" font-size="9.00" fill="#000000">publish</text>
</g>
<!-- place_61e62b213a1a56f7695845df4fc372a10cb0a73e&#45;&gt;transition_5e2fb0c2c59448e1dec5df0f70ec85fcad1ca7b6 -->
<g id="edge3" class="edge">
<title>place_61e62b213a1a56f7695845df4fc372a10cb0a73e&#45;&gt;transition_5e2fb0c2c59448e1dec5df0f70ec85fcad1ca7b6</title>
<path fill="none" stroke="#333333" d="M279.5324,-132.9574C291.7659,-143.3786 306.4072,-155.8508 319.8269,-167.2824"/>
<polygon fill="#333333" stroke="#333333" points="319.0074,-168.8831 323.9484,-170.7933 321.277,-166.2188 319.0074,-168.8831"/>
</g>
<!-- transition_90afb8c10d80d7b84837590eb43cb0b81ca22390 -->
<g id="node7" class="node">
<title>transition_90afb8c10d80d7b84837590eb43cb0b81ca22390</title>
<polygon fill="none" stroke="#333333" points="396,-145.5039 324,-145.5039 324,-73.5039 396,-73.5039 396,-145.5039"/>
<text text-anchor="middle" x="360" y="-107.4785" font-family="Arial" font-size="9.00" fill="#000000">reject</text>
</g>
<!-- place_61e62b213a1a56f7695845df4fc372a10cb0a73e&#45;&gt;transition_90afb8c10d80d7b84837590eb43cb0b81ca22390 -->
<g id="edge5" class="edge">
<title>place_61e62b213a1a56f7695845df4fc372a10cb0a73e&#45;&gt;transition_90afb8c10d80d7b84837590eb43cb0b81ca22390</title>
<path fill="none" stroke="#333333" d="M288.2629,-109.5039C297.969,-109.5039 308.5352,-109.5039 318.5004,-109.5039"/>
<polygon fill="#333333" stroke="#333333" points="318.649,-111.254 323.649,-109.5039 318.649,-107.754 318.649,-111.254"/>
</g>
<!-- place_1f087a5954f6249bb7245576c304a0520d4178c5 -->
<g id="node3" class="node">
<title>place_1f087a5954f6249bb7245576c304a0520d4178c5</title>
<ellipse fill="none" stroke="#333333" cx="472" cy="-109.5039" rx="36" ry="36"/>
<text text-anchor="middle" x="472" y="-107.4785" font-family="Arial" font-size="9.00" fill="#000000">rejected</text>
</g>
<!-- transition_a84cb335d064aa133cd789c5752ec3698ca05cad -->
<g id="node8" class="node">
<title>transition_a84cb335d064aa133cd789c5752ec3698ca05cad</title>
<polygon fill="none" stroke="#333333" points="703.0117,-155.0117 547.9961,-155.0117 547.9961,.0039 703.0117,.0039 703.0117,-155.0117"/>
<text text-anchor="middle" x="625.5039" y="-76.7511" font-family="Arial" font-size="9.00" fill="#000000">我修改了之后就可以重新 review 了</text>
</g>
<!-- place_1f087a5954f6249bb7245576c304a0520d4178c5&#45;&gt;transition_a84cb335d064aa133cd789c5752ec3698ca05cad -->
<g id="edge7" class="edge">
<title>place_1f087a5954f6249bb7245576c304a0520d4178c5&#45;&gt;transition_a84cb335d064aa133cd789c5752ec3698ca05cad</title>
<path fill="none" stroke="#333333" d="M507.6027,-102.082C518.3145,-99.849 530.5446,-97.2995 542.9779,-94.7076"/>
<polygon fill="#333333" stroke="#333333" points="543.3992,-96.4075 547.9369,-93.6738 542.6849,-92.9811 543.3992,-96.4075"/>
</g>
<!-- place_c2807535f28e44fe6c7375dcf90518115529a8fa -->
<g id="node4" class="node">
<title>place_c2807535f28e44fe6c7375dcf90518115529a8fa</title>
<ellipse fill="none" stroke="#ff0000" cx="472" cy="-203.5039" rx="36" ry="36"/>
<ellipse fill="none" stroke="#ff0000" cx="472" cy="-203.5039" rx="40" ry="40"/>
<text text-anchor="middle" x="472" y="-201.4785" font-family="Arial" font-size="9.00" fill="#000000">published</text>
</g>
<!-- transition_bc23cc6a5c3c0eb3268ef53423a70efa7c89f3f8&#45;&gt;place_61e62b213a1a56f7695845df4fc372a10cb0a73e -->
<g id="edge2" class="edge">
<title>transition_bc23cc6a5c3c0eb3268ef53423a70efa7c89f3f8&#45;&gt;place_61e62b213a1a56f7695845df4fc372a10cb0a73e</title>
<path fill="none" stroke="#333333" d="M180.2629,-109.5039C189.969,-109.5039 200.5352,-109.5039 210.5004,-109.5039"/>
<polygon fill="#333333" stroke="#333333" points="210.649,-111.254 215.649,-109.5039 210.649,-107.754 210.649,-111.254"/>
</g>
<!-- transition_5e2fb0c2c59448e1dec5df0f70ec85fcad1ca7b6&#45;&gt;place_c2807535f28e44fe6c7375dcf90518115529a8fa -->
<g id="edge4" class="edge">
<title>transition_5e2fb0c2c59448e1dec5df0f70ec85fcad1ca7b6&#45;&gt;place_c2807535f28e44fe6c7375dcf90518115529a8fa</title>
<path fill="none" stroke="#333333" d="M396.054,-202.1477C405.7471,-202.3208 416.3572,-202.5103 426.4919,-202.6913"/>
<polygon fill="#333333" stroke="#333333" points="426.7105,-204.4454 431.741,-202.785 426.773,-200.9459 426.7105,-204.4454"/>
</g>
<!-- transition_90afb8c10d80d7b84837590eb43cb0b81ca22390&#45;&gt;place_1f087a5954f6249bb7245576c304a0520d4178c5 -->
<g id="edge6" class="edge">
<title>transition_90afb8c10d80d7b84837590eb43cb0b81ca22390&#45;&gt;place_1f087a5954f6249bb7245576c304a0520d4178c5</title>
<path fill="none" stroke="#333333" d="M396.054,-109.5039C407.034,-109.5039 419.1908,-109.5039 430.5002,-109.5039"/>
<polygon fill="#333333" stroke="#333333" points="430.6296,-111.254 435.6296,-109.5039 430.6295,-107.754 430.6296,-111.254"/>
</g>
<!-- transition_a84cb335d064aa133cd789c5752ec3698ca05cad&#45;&gt;place_61e62b213a1a56f7695845df4fc372a10cb0a73e -->
<g id="edge8" class="edge">
<title>transition_a84cb335d064aa133cd789c5752ec3698ca05cad&#45;&gt;place_61e62b213a1a56f7695845df4fc372a10cb0a73e</title>
<path fill="none" stroke="#333333" d="M547.7034,-60.789C485.8566,-50.6593 397.7815,-43.3437 324,-64.5039 310.1184,-68.4851 296.317,-76.0095 284.5674,-83.7821"/>
<polygon fill="#333333" stroke="#333333" points="283.492,-82.3969 280.335,-86.6509 285.4558,-85.2941 283.492,-82.3969"/>
</g>
</g>
</svg>
