<?xml version="1.0" encoding="UTF-8" standalone="no"?>
<!DOCTYPE svg PUBLIC "-//W3C//DTD SVG 1.1//EN"
 "http://www.w3.org/Graphics/SVG/1.1/DTD/svg11.dtd">
<!-- Generated by graphviz version 2.40.1 (20161225.0304)
 -->
<!-- Title: workflow Pages: 1 -->
<svg width="711pt" height="244pt"
 viewBox="0.00 0.00 711.01 243.50" xmlns="http://www.w3.org/2000/svg" xmlns:xlink="http://www.w3.org/1999/xlink">
<g id="graph0" class="graph" transform="scale(1 1) rotate(0) translate(4 239.5039)">
<title>workflow</title>
<polygon fill="#ffffff" stroke="transparent" points="-4,4 -4,-239.5039 707.0078,-239.5039 707.0078,4 -4,4"/>
<!-- place_0e7766b460fd2a39a2fd81d4a3a636b033b52be4 -->
<g id="node1" class="node">
<title>place_0e7766b460fd2a39a2fd81d4a3a636b033b52be4</title>
<ellipse fill="#add8e6" stroke="#ff0000" cx="40" cy="-109.5039" rx="36" ry="36"/>
<ellipse fill="none" stroke="#ff0000" cx="40" cy="-109.5039" rx="40" ry="40"/>
<text text-anchor="middle" x="40" y="-107.4785" font-family="Arial" font-size="9.00" fill="#000000">draft</text>
</g>
<!-- transition_bc23cc6a5c3c0eb3268ef53423a70efa7c89f3f8 -->
<g id="node5" class="node">
<title>transition_bc23cc6a5c3c0eb3268ef53423a70efa7c89f3f8</title>
<polygon fill="none" stroke="#333333" points="188,-145.5039 116,-145.5039 116,-73.5039 188,-73.5039 188,-145.5039"/>
<text text-anchor="middle" x="152" y="-107.4785" font-family="Arial" font-size="9.00" fill="#000000">to_review</text>
</g>
<!-- place_0e7766b460fd2a39a2fd81d4a3a636b033b52be4&#45;&gt;transition_bc23cc6a5c3c0eb3268ef53423a70efa7c89f3f8 -->
<g id="edge1" class="edge">
<title>place_0e7766b460fd2a39a2fd81d4a3a636b033b52be4&#45;&gt;transition_bc23cc6a5c3c0eb3268ef53423a70efa7c89f3f8</title>
<path fill="none" stroke="#333333" d="M80.1182,-109.5039C90.0601,-109.5039 100.73,-109.5039 110.726,-109.5039"/>
<polygon fill="#333333" stroke="#333333" points="110.8845,-111.254 115.8845,-109.5039 110.8844,-107.754 110.8845,-111.254"/>
</g>
<!-- place_61e62b213a1a56f7695845df4fc372a10cb0a73e -->
<g id="node2" class="node">
<title>place_61e62b213a1a56f7695845df4fc372a10cb0a73e</title>
<ellipse fill="none" stroke="#333333" cx="260" cy="-109.5039" rx="36" ry="36"/>
<text text-anchor="middle" x="260" y="-107.4785" font-family="Arial" font-size="9.00" fill="#000000">review</text>
</g>
<!-- transition_5e2fb0c2c59448e1dec5df0f70ec85fcad1ca7b6 -->
<g id="node6" class="node">
<title>transition_5e2fb0c2c59448e1dec5df0f70ec85fcad1ca7b6</title>
<polygon fill="none" stroke="#333333" points="404,-235.5039 332,-235.5039 332,-163.5039 404,-163.5039 404,-235.5039"/>
<text text-anchor="middle" x="368" y="-197.4785" font-family="Arial" font-size="9.00" fill="#000000">publish</text>
</g>
<!-- place_61e62b213a1a56f7695845df4fc372a10cb0a73e&#45;&gt;transition_5e2fb0c2c59448e1dec5df0f70ec85fcad1ca7b6 -->
<g id="edge3" class="edge">
<title>place_61e62b213a1a56f7695845df4fc372a10cb0a73e&#45;&gt;transition_5e2fb0c2c59448e1dec5df0f70ec85fcad1ca7b6</title>
<path fill="none" stroke="#333333" d="M287.8127,-132.6811C299.9336,-142.7819 314.3772,-154.8183 327.6448,-165.8746"/>
<polygon fill="#333333" stroke="#333333" points="326.7592,-167.4146 331.7207,-169.2711 328.9999,-164.7258 326.7592,-167.4146"/>
</g>
<!-- transition_90afb8c10d80d7b84837590eb43cb0b81ca22390 -->
<g id="node7" class="node">
<title>transition_90afb8c10d80d7b84837590eb43cb0b81ca22390</title>
<polygon fill="none" stroke="#333333" points="404,-145.5039 332,-145.5039 332,-73.5039 404,-73.5039 404,-145.5039"/>
<text text-anchor="middle" x="368" y="-107.4785" font-family="Arial" font-size="9.00" fill="#000000">reject</text>
</g>
<!-- place_61e62b213a1a56f7695845df4fc372a10cb0a73e&#45;&gt;transition_90afb8c10d80d7b84837590eb43cb0b81ca22390 -->
<g id="edge5" class="edge">
<title>place_61e62b213a1a56f7695845df4fc372a10cb0a73e&#45;&gt;transition_90afb8c10d80d7b84837590eb43cb0b81ca22390</title>
<path fill="none" stroke="#333333" d="M296.2629,-109.5039C305.969,-109.5039 316.5352,-109.5039 326.5004,-109.5039"/>
<polygon fill="#333333" stroke="#333333" points="326.649,-111.254 331.649,-109.5039 326.649,-107.754 326.649,-111.254"/>
</g>
<!-- place_1f087a5954f6249bb7245576c304a0520d4178c5 -->
<g id="node3" class="node">
<title>place_1f087a5954f6249bb7245576c304a0520d4178c5</title>
<ellipse fill="none" stroke="#333333" cx="476" cy="-109.5039" rx="36" ry="36"/>
<text text-anchor="middle" x="476" y="-107.4785" font-family="Arial" font-size="9.00" fill="#000000">rejected</text>
</g>
<!-- transition_a84cb335d064aa133cd789c5752ec3698ca05cad -->
<g id="node8" class="node">
<title>transition_a84cb335d064aa133cd789c5752ec3698ca05cad</title>
<polygon fill="none" stroke="#333333" points="703.0117,-155.0117 547.9961,-155.0117 547.9961,.0039 703.0117,.0039 703.0117,-155.0117"/>
<text text-anchor="middle" x="625.5039" y="-76.7511" font-family="Arial" font-size="9.00" fill="#000000">我修改了之后就可以重新 review 了</text>
</g>
<!-- place_1f087a5954f6249bb7245576c304a0520d4178c5&#45;&gt;transition_a84cb335d064aa133cd789c5752ec3698ca05cad -->
<g id="edge7" class="edge">
<title>place_1f087a5954f6249bb7245576c304a0520d4178c5&#45;&gt;transition_a84cb335d064aa133cd789c5752ec3698ca05cad</title>
<path fill="none" stroke="#333333" d="M511.4303,-101.9204C521.015,-99.8688 531.8054,-97.5593 542.8282,-95.1999"/>
<polygon fill="#333333" stroke="#333333" points="543.3826,-96.871 547.9056,-94.1132 542.65,-93.4485 543.3826,-96.871"/>
</g>
<!-- place_c2807535f28e44fe6c7375dcf90518115529a8fa -->
<g id="node4" class="node">
<title>place_c2807535f28e44fe6c7375dcf90518115529a8fa</title>
<ellipse fill="none" stroke="#333333" cx="476" cy="-199.5039" rx="36" ry="36"/>
<text text-anchor="middle" x="476" y="-197.4785" font-family="Arial" font-size="9.00" fill="#000000">published</text>
</g>
<!-- transition_bc23cc6a5c3c0eb3268ef53423a70efa7c89f3f8&#45;&gt;place_61e62b213a1a56f7695845df4fc372a10cb0a73e -->
<g id="edge2" class="edge">
<title>transition_bc23cc6a5c3c0eb3268ef53423a70efa7c89f3f8&#45;&gt;place_61e62b213a1a56f7695845df4fc372a10cb0a73e</title>
<path fill="none" stroke="#333333" d="M188.2629,-109.5039C197.969,-109.5039 208.5352,-109.5039 218.5004,-109.5039"/>
<polygon fill="#333333" stroke="#333333" points="218.649,-111.254 223.649,-109.5039 218.649,-107.754 218.649,-111.254"/>
</g>
<!-- transition_5e2fb0c2c59448e1dec5df0f70ec85fcad1ca7b6&#45;&gt;place_c2807535f28e44fe6c7375dcf90518115529a8fa -->
<g id="edge4" class="edge">
<title>transition_5e2fb0c2c59448e1dec5df0f70ec85fcad1ca7b6&#45;&gt;place_c2807535f28e44fe6c7375dcf90518115529a8fa</title>
<path fill="none" stroke="#333333" d="M404.2629,-199.5039C413.969,-199.5039 424.5352,-199.5039 434.5004,-199.5039"/>
<polygon fill="#333333" stroke="#333333" points="434.649,-201.254 439.649,-199.5039 434.649,-197.754 434.649,-201.254"/>
</g>
<!-- transition_90afb8c10d80d7b84837590eb43cb0b81ca22390&#45;&gt;place_1f087a5954f6249bb7245576c304a0520d4178c5 -->
<g id="edge6" class="edge">
<title>transition_90afb8c10d80d7b84837590eb43cb0b81ca22390&#45;&gt;place_1f087a5954f6249bb7245576c304a0520d4178c5</title>
<path fill="none" stroke="#333333" d="M404.2629,-109.5039C413.969,-109.5039 424.5352,-109.5039 434.5004,-109.5039"/>
<polygon fill="#333333" stroke="#333333" points="434.649,-111.254 439.649,-109.5039 434.649,-107.754 434.649,-111.254"/>
</g>
<!-- transition_a84cb335d064aa133cd789c5752ec3698ca05cad&#45;&gt;place_61e62b213a1a56f7695845df4fc372a10cb0a73e -->
<g id="edge8" class="edge">
<title>transition_a84cb335d064aa133cd789c5752ec3698ca05cad&#45;&gt;place_61e62b213a1a56f7695845df4fc372a10cb0a73e</title>
<path fill="none" stroke="#333333" d="M547.9124,-60.7916C487.8109,-50.9935 403.092,-44.115 332,-64.5039 318.1184,-68.4851 304.317,-76.0095 292.5674,-83.7821"/>
<polygon fill="#333333" stroke="#333333" points="291.492,-82.3969 288.335,-86.6509 293.4558,-85.2941 291.492,-82.3969"/>
</g>
</g>
</svg>
